<?xml version="1.0" encoding="utf-8"?>
<!-- Generator: Adobe Illustrator 23.0.0, SVG Export Plug-In . SVG Version: 6.00 Build 0)  -->
<svg version="1.0" id="Capa_1" xmlns="http://www.w3.org/2000/svg" xmlns:xlink="http://www.w3.org/1999/xlink" x="0px" y="0px"
	 viewBox="0 0 600 600" style="enable-background:new 0 0 600 600;" xml:space="preserve">
<style type="text/css">
	.st0{fill:#2A232B;}
	.st1{fill:#DAA488;}
	.st2{fill:#E9BFA9;}
	.st3{fill:#CB8B6A;}
	.st4{fill:none;stroke:#AC5F38;stroke-width:1.5;}
	.st5{fill:url(#SvgjsPath3071_1_);}
	.st6{fill:#386E77;}
	.st7{fill:#265E68;}
	.st8{fill:#184F58;}
	.st9{fill:#4D7E86;}
	.st10{fill:#0C4049;}
	.st11{fill:#DAA488;stroke:#AC5F38;stroke-width:1.5;}
	.st12{fill:#AC5F38;}
	.st13{fill:#D29779;}
	.st14{fill:url(#SvgjsPath3080_1_);}
	.st15{fill:#FFFFFF;}
	.st16{fill:none;stroke:#AC5F38;stroke-width:0.75;}
	.st17{fill:url(#SvgjsPath3212_1_);}
	.st18{fill:#4D3623;stroke:#1F1105;stroke-width:0.5;}
	.st19{fill:#5C4633;}
	.st20{opacity:0.9;enable-background:new    ;}
	.st21{opacity:0.6;fill:#FFFFFF;enable-background:new    ;}
	.st22{opacity:0.8;fill:#FFFFFF;enable-background:new    ;}
	.st23{fill:url(#SvgjsPath3235_1_);}
	.st24{fill:url(#SvgjsPath3240_1_);}
	.st25{fill:url(#SvgjsPath3219_1_);}
	.st26{fill:url(#SvgjsPath3255_1_);}
	.st27{fill:url(#SvgjsPath3260_1_);}
	.st28{fill:url(#SvgjsPath2885_1_);}
	.st29{fill:url(#SvgjsPath2889_1_);}
	.st30{fill:#080806;}
	.st31{fill:#1B141C;}
	.st32{fill:#0C080C;}
	.st33{fill:#3A353A;}
	.st34{fill:#26120B;}
	.st35{display:none;opacity:0.5;fill:#ECF0F1;enable-background:new    ;}
</style>
<path id="SvgjsPath3384" class="st0" d="M301.2,273.1h-2.4v-2.4h2.4V273.1z"/>
<path id="SvgjsPath2893" class="st1" d="M531.5,514c-5.3-11.5-19.9-28.6-36.1-33.3c-20-5.8-65.1-12.9-81.8-16.8
	c-13.4-3.1-40.4-27.4-49.9-35.5c-1.7-1.5-3.1-4.5-3.1-6.7c-0.3-26.4,10.2-96.4,10.2-96.4H300h-70.8c0,0,10.5,70,10.2,96.4
	c0,2.2-1.4,5.2-3.1,6.7c-9.5,8.1-36.5,32.4-49.9,35.5c-16.7,3.9-61.9,11.2-81.8,17c-16.2,4.7-30.7,21.5-36.1,33.1
	c-9,19.4-11.1,54.6-11.1,84.9H300h242.6C542.6,568.6,540.5,533.4,531.5,514z"/>
<path id="SvgjsPath2894" class="st2" d="M443.5,475.8c59.1,8.6,83.9,21.1,91.7,123.1h7.4c0-30.3-2.1-65.5-11.1-84.9
	c-5.3-11.5-19.9-28.6-36.1-33.3c-20-5.8-65.1-12.9-81.8-16.8c-13.4-3.1-44.3-29.3-52.5-39.7c8.2,11.4,31,37.9,51.1,44.8
	C421.8,472.3,429.8,473.8,443.5,475.8z M187.8,469c20-6.9,42.9-33.4,51.1-44.8c-8.2,10.4-39.1,36.5-52.5,39.7
	c-16.7,3.9-61.9,11.2-81.8,17c-16.2,4.7-30.7,21.5-36.1,33.1c-9,19.4-11.1,54.6-11.1,84.9h7.4c7.7-101.3,32.7-114.5,91.7-123.1
	C170.2,473.8,178.2,472.3,187.8,469z"/>
<path id="SvgjsPath2895" class="st3" d="M289.4,508.7c0,0-12.3-3.9-17.2-5.8c-25.4-9.7-107.7-16-107.7-16s86.8,3.4,105.9,6.7
	c-1.1-11.6-7.3-48.5-7.3-48.5s12.5,40.8,15.6,51.1C280.3,501.7,289.4,508.7,289.4,508.7z M315.6,505.5c-0.2,0.2-0.5,0.4-0.7,0.7
	C315.2,505.9,315.4,505.7,315.6,505.5z M289.4,508.7c0,0,7,7.3,10.5,7.4c4.6,0.1,11.7-7,14.9-10c-3.1,2.3-10.1,3.4-12.9,3.5
	C298.8,509.7,289.4,508.7,289.4,508.7z M340.4,490.5c-3.7,0.6-10.6,1.9-10.6,1.9l5.5-36.1c-1.6,7.5-10.9,39.3-19.7,49.2
	c4.6-3.9,14.9-5.8,20.2-6.6c24.8-3.6,24.8-3.6,99.6-12C435.5,486.9,364.9,486.6,340.4,490.5z"/>
<path id="SvgjsPath2896" class="st4" d="M531.5,514c-5.3-11.5-19.9-28.6-36.1-33.3c-20-5.8-65.1-12.9-81.8-16.8
	c-13.4-3.1-40.4-27.4-49.9-35.5c-1.7-1.5-3.1-4.5-3.1-6.7c-0.3-26.4,10.2-96.4,10.2-96.4H300h-70.8c0,0,10.5,70,10.2,96.4
	c0,2.2-1.4,5.2-3.1,6.7c-9.5,8.1-36.5,32.4-49.9,35.5c-16.7,3.9-61.9,11.2-81.8,17c-16.2,4.7-30.7,21.5-36.1,33.1
	c-9,19.4-11.1,54.6-11.1,84.9H300h242.6C542.6,568.6,540.5,533.4,531.5,514z"/>
<linearGradient id="SvgjsPath3071_1_" gradientUnits="userSpaceOnUse" x1="-124.6663" y1="554.2272" x2="-124.6663" y2="589.8137" gradientTransform="matrix(3 0 0 -3 674 2109.2598)">
	<stop  offset="0" style="stop-color:#CB8B6A;stop-opacity:0.8"/>
	<stop  offset="0.7" style="stop-color:#AC5F38"/>
</linearGradient>
<path id="SvgjsPath3071" class="st5" d="M239,428c17.5,11.2,38.5,18.2,61,18.2c22.5,0,43.5-7,61-18.2c-1.3-1.9-2.2-4.3-2.2-6.4
	c-0.2-17.3,4.1-52.4,7.2-75.3c-37.8-7.6-94-7.6-131.9,0c3.1,22.9,7.4,58,7.2,75.3C241.2,423.7,240.3,426.1,239,428z"/>
<path id="SvgjsPath3455" class="st6" d="M45.7,598.5c3.6-26.2-0.5-28.6,10-80.1c3-17.9,6.5-32.3,19.8-25.7
	c9.8-14.6,37.6-15.9,139.1-50.1v-0.6c0.7-2.4,6.6-10.4,7.5-24c0.9-13.2,6.6-23.2,13.6-28.2c-16.4,57.5,56.2,36.3,58.7,75.5
	c0.2,3.1-2.4,24.6-2,26.6c8.1-1.6,16.3-1.7,25.1-1.6c-9.5-37-1.3-40.9,17.8-48.1c23.2-8.7,31.2-17.4,29.1-50.2
	c11.1,10,3.7,23.5,17.4,42.5c88,31.9,121.4,40.9,138.2,52.2c14.5-11,23.5,6.4,42,111.9C387.9,600,189,599.7,45.7,598.5z"/>
<path id="SvgjsPath3456" class="st7" d="M280.9,507.8c0.7-0.1,8.2-13.4,8.2-13.4c14-5.2,44.6,4.9,82.5-24.7
	C343.7,513.6,293.1,482.3,280.9,507.8z M227.5,464.5c21.2,24.3,57.3,33.3,65,25.9C292.4,490.6,250.5,488.8,227.5,464.5z"/>
<path id="SvgjsPath3457" class="st8" d="M236,391.8c0,0,1.7,16.8,2,28.5C232.9,408.9,231.8,405.9,236,391.8z"/>
<path id="SvgjsPath3458" class="st9" d="M69,500.3c-11.6,33.4-12.6,69.4-19.6,98.2c-1.7,0-2,0.7-3.7,0.7c3.6-26.2-0.5-30,10-81.5
	c3-17.9,6.5-32.3,19.8-25.7c9.8-14.6,37.6-15.9,139.1-50.1v-0.6c0.7-2.4,6.6-10.4,7.5-24c0.8-11.9,6.4-22.9,12.7-27.5
	c-14.4,15.7-4.7,44.5-19.6,55.7C186.2,463.5,102.5,485,69,500.3z M520.2,486.6c-16.8-11.3-50.3-20.3-138.2-52.2
	c-13.7-19-6.3-32.6-17.4-42.5c0.2,2.4,0,1.5,0,3.7c5.2-1,6.5,38.4,18.1,44.1c46.1,21.8,109.8,42,144.4,54.9
	c16.1,24.3,19.8,65.4,32.5,103.9c2.6,0,0,0,2.6,0C543.7,493,534.7,475.7,520.2,486.6z M363.1,423.4c-17.8,31.1-52.5,11.3-49.1,48.1
	C320.6,436,351.4,456.1,363.1,423.4z M293.6,476.4c6.4-40-37.6-33.4-57.3-56.5C248.6,445.1,289.2,437.4,293.6,476.4z"/>
<path id="SvgjsPath3459" class="st10" d="M533.3,485.2c-3.8-3.9-9.2-3.1-13.1-0.1c-17.3-11.5-63.7-23-137.4-52.4
	c0,0-5.6-7.2-8.4-19.5c-1.9-8.1-0.7-17.2-10.2-23.9c-1.8,22.5-1,40.6-23.1,49.3c-21.7,8.7-35.7,9.1-25,50.4
	c-5.6-0.1-15.7,0-22.6,1.4c-0.1-0.7,2.5-21.3,2.2-25.3c-2.5-37.3-69.2-23.4-60.5-66.8c0.8-4,1.1-6.2,0.5-9.2
	c-8.9,4.7-12.9,14.7-14.2,23.1c-1.3,9.4,0.8,11.8-8.1,29.4c0,0,0,0.1,0,0.1c-0.4,0.1-0.8,0.3-1.3,0.4
	c-100.5,33.5-128.2,35.9-137,49.1c-14.4-7.1-18.1,12.4-20.5,27.1c-10.7,52.4-6.3,54.2-10.2,81.5c2.4,0,266.1,2.3,516.7,0
	c0.9,0,1.7,0,2.6,0C562.8,596.4,548,499.6,533.3,485.2z M342.5,442.1c24-9.7,23.1-23.4,22.7-48c8.3,3.7,2.2,21.6,16.5,40.1
	c0,11.8-3.1,24.2-10.3,32.7c-13.4,14.8-35.7,22.6-53.9,22.2C311.4,449.8,319.2,451.7,342.5,442.1z M223.2,415
	c0.2-6.6,5.2-20,11.9-24.5c-21.2,56,54.4,37.6,57.6,77.4c0.1,1.1-0.9,20.2-0.9,21.4c-39.1-4.6-57.4-13.5-76.8-46.6
	c0-0.1,0.1-0.2,0.1-0.3c0,0,0,0,0,0C221.3,430.3,222.4,427.5,223.2,415z M46.2,598.1c3.5-12.6,3.3-36.2,9.8-69.5
	c3.8-19,4-42.1,18.1-36.5c0,0,0.1,0,0.1,0c8.5,20.6,26.7,76.4,27.5,78.9c0.4,1.1,5,20,6.2,24c-5.2-41.2-27.9-96.4-31.5-102.2
	c9.8-10.1,7.5-5.6,87.2-30.8c17.2-5.4,47.1-17.2,49.2-18.4c22.3,48.2,69.3,46.4,78.4,47.4c-26.7,8.2-11.5,75.8-9.1,99.4
	c-0.4-19.2-8.4-71.1,3-89.4c0,0,1.6-3.2,7.6-5.8c16.9-6.4,37.2,7.2,72.7-17.8c11.5-11,17.3-17.9,17.3-42.5
	c58.3,27.5,113.9,40.6,136.1,52.7c0,0.2-0.1,1-0.1,1c-3.7,32.1,3-2.8-10.7,69.6c-3.6,20.7-1,13.8-2.7,32.2c3.6-19-0.2-9.1,5.1-31.8
	c11.1-46.9,9.4-55.7,10.1-71.3c8.1-5.8,12.4,0.5,15.5,9.6c11.7,35.7,19.4,82.8,24.5,101.3C400.8,596.6,206,596.7,46.2,598.1z
	 M319,521c-7.9,3.1-17.7,2.3-26.5,1.1C307.7,519.9,317.5,520.9,319,521z"/>
<path id="SvgjsPath3096" class="st11" d="M172.2,229.4c-3.3-5.8-22.8-16.2-28.8-15.8c-10.3,0.7-12.5,12.8-13.2,18.6
	c-1.5,11.4,1.6,24.3,3.6,32c1.7,6.3,7,18.4,10.2,24c2.9,5,10.1,14.1,13.9,18.3c3.4,3.7,11.5,10.5,17.6,8.8
	c6.7-1.8,14.6-9.6,15.1-12.9C193.6,284.4,180.9,244.6,172.2,229.4z"/>
<path id="SvgjsPath3097" class="st12" d="M161.5,270.4c-0.3-1.4,0-3.8,0.4-6.1c0.3-2.1,0.6-4.1,0.4-5.5c-0.7-5.3-4.6-15.3-7.1-20.7
	c-2.9-6.2-7.7-14.1-13.6-16.1c-2.5-0.8-5-1.3-5.2-0.6c-1.5,4.7-1.4,17.8-0.5,27.5c2.4,27.3,25.2,46.9,28.8,51.1
	c0.7,0.8,1.4,1.2,1.5,1c0.2-0.2-0.2-0.9-0.9-1.7c-3.6-4.1-20.2-21.1-22.5-31.8c-2.5-11.4,7.3-30.1,9.2-33.6c1,1.7,1.8,3.3,2.4,4.6
	c0.5,1.1,1,2.3,1.6,3.6c-1.1,1.9-8.9,15.4-6,26.3c1,4,5.8,9.2,8.9,10.6c1.7,0.8,2.4,1.9,3.1,3.3c0.9,1.6,1.9,3.3,4.7,4.6
	c0.6,0.3,1.1,0.4,1.6,0.4c0.8,0,1.4-0.3,1.9-0.7c0,0.7-0.8,6.1-0.9,6.9c0,1,0.1,1.9,0.4,1.9c0.2,0,0.5-0.8,0.5-1.9
	c0-1.3,0.9-7.4,0.7-8.2c-0.6-2.2-2.6-4.8-4.7-7.4C164.1,275.3,162,272.6,161.5,270.4z M140.9,260.8c-5.6-17.4,3.5-32.7,4.8-35.1
	c2.2,2,4.1,4.7,5.7,7.3C150.3,235.1,141.1,249,140.9,260.8z M167,286c-2.6-1.2-3.5-2.7-4.3-4.2c-0.8-1.4-1.5-2.8-3.5-3.7
	c-0.4-0.2-0.9-0.5-1.4-0.8c-6.4-15.3,0.7-22,2.5-23.4c0.5,1.9,1,3.6,1.1,5c0.2,1.3-0.1,3.3-0.4,5.2c-0.4,2.4-0.7,4.9-0.3,6.5
	c0.6,2.4,2.8,5.2,4.9,7.9c1.9,2.4,3.8,4.9,4.4,6.9C169.6,285.8,168.7,286.8,167,286z"/>
<path id="SvgjsPath3098" class="st11" d="M427.1,229.4c3.3-5.8,22.8-16.2,28.8-15.8c10.3,0.7,12.5,12.8,13.2,18.6
	c1.5,11.4-1.6,24.3-3.6,32c-1.7,6.3-7,18.4-10.2,24c-2.9,5-10.1,14.1-13.9,18.3c-3.4,3.7-11.5,10.5-17.6,8.8
	c-6.7-1.8-14.6-9.6-15.1-12.9C405.7,284.4,418.4,244.6,427.1,229.4z"/>
<path id="SvgjsPath3099" class="st12" d="M433.2,277.9c-2.1,2.7-4,5.2-4.7,7.4c-0.2,0.8,0.7,6.9,0.7,8.2c0,1,0.3,1.9,0.5,1.9
	c0.2,0,0.4-0.9,0.4-1.9c0-0.8-0.9-6.2-0.9-6.9c0.5,0.4,1.1,0.7,1.9,0.7c0.5,0,1-0.1,1.6-0.4c2.9-1.3,3.9-3.1,4.7-4.6
	c0.8-1.3,1.4-2.5,3.1-3.3c3.1-1.4,7.9-6.6,8.9-10.6c2.8-10.9-4.9-24.4-6-26.3c0.6-1.3,1.1-2.6,1.6-3.6c0.6-1.3,1.4-2.9,2.4-4.6
	c1.9,3.6,11.6,22.2,9.2,33.6c-2.3,10.7-18.9,27.7-22.5,31.8c-0.7,0.8-1.1,1.5-0.9,1.7c0.2,0.2,0.9-0.3,1.5-1
	c3.6-4.1,26.4-23.8,28.8-51.1c0.8-9.7,1-22.8-0.5-27.5c-0.2-0.7-2.8-0.3-5.2,0.6c-5.9,2-10.7,9.9-13.6,16.1
	c-2.5,5.4-6.4,15.4-7.1,20.7c-0.2,1.4,0.1,3.4,0.4,5.5c0.4,2.3,0.7,4.7,0.4,6.1C437.4,272.6,435.3,275.3,433.2,277.9z M448,233
	c1.6-2.6,3.5-5.3,5.7-7.3c1.3,2.4,10.4,17.7,4.8,35.1C458.2,249,449.1,235.1,448,233z M429.5,285.4c0.7-2,2.6-4.5,4.4-6.9
	c2.1-2.7,4.3-5.5,4.9-7.9c0.4-1.6,0-4.1-0.4-6.5c-0.3-1.9-0.6-3.9-0.4-5.2c0.2-1.4,0.6-3.1,1.1-5c1.8,1.4,8.9,8.1,2.5,23.4
	c-0.5,0.3-1,0.6-1.4,0.8c-2,0.9-2.8,2.3-3.5,3.7c-0.8,1.5-1.7,3.1-4.3,4.2C430.6,286.8,429.7,285.8,429.5,285.4z"/>
<path id="SvgjsPath3068" class="st1" d="M300,31.3C218.4,31.2,152.4,98,152.3,180.6c0,13.1,1.6,25.8,4.7,38h0
	c0,0.1,21.5,86.7,37.3,131.2c13.5,38,55.9,72.3,105.6,72.3c49.8,0,92.1-34.3,105.6-72.3c15.8-44.5,37.3-131.1,37.3-131.2h0
	c3.1-12.1,4.8-24.8,4.7-38C447.6,98,381.6,31.2,300,31.3z"/>
<path id="SvgjsPath3069" class="st13" d="M413.5,85c18.1,25,26.4,56.2,26.5,90.1c0,15.7-4.6,38-4.6,38c0,0.1-20.7,86.7-35.9,131.2
	c-13,38-51.4,72.3-99.4,72.3c-48,0-86.3-34.3-99.4-72.3c-15.3-44.5-35.9-131.1-36-131.2c0,0-4.6-24.6-4.6-38
	c0.1-33.9,8.4-65.1,26.4-90.1c-21.3,25.9-34.1,59.2-34.2,95.5c0,13.1,1.6,25.8,4.7,38h0c0,0.1,21.5,86.7,37.3,131.2
	c13.5,38,55.9,72.3,105.6,72.3c49.8,0,92.1-34.3,105.6-72.3c15.8-44.5,37.3-131.1,37.3-131.2h0c3.1-12.1,4.8-24.8,4.7-38
	C447.6,144.2,434.8,110.9,413.5,85z"/>
<path id="SvgjsPath3070" class="st4" d="M300,31.3C218.4,31.2,152.4,98,152.3,180.6c0,13.1,1.6,25.8,4.7,38h0
	c0,0.1,21.5,86.7,37.3,131.2c13.5,38,55.9,72.3,105.6,72.3c49.8,0,92.1-34.3,105.6-72.3c15.8-44.5,37.3-131.1,37.3-131.2h0
	c3.1-12.1,4.8-24.8,4.7-38C447.6,98,381.6,31.2,300,31.3z"/>
<linearGradient id="SvgjsPath3080_1_" gradientUnits="userSpaceOnUse" x1="-124.7722" y1="576.8732" x2="-124.7722" y2="579.2995" gradientTransform="matrix(3 0 0 -3 674 2109.2598)">
	<stop  offset="0.1" style="stop-color:#D29779"/>
	<stop  offset="1" style="stop-color:#CB8B6A"/>
</linearGradient>
<path id="SvgjsPath3080" class="st14" d="M300,379.1c-7.9,0-11.5-6.8-11.5-6.8s11.6,1.9,22.5-0.2C310.9,372.1,306.9,379.1,300,379.1
	z"/>
<path id="SvgjsPath3084" class="st15" d="M299.7,365.8c-20.6,0-29.7-6.3-37.6-14.6h75.3C330.7,359.6,321.1,365.8,299.7,365.8z"/>
<path id="SvgjsPath3085" class="st16" d="M299.7,365.8c-20.6,0-29.7-6.3-37.6-14.6h75.3C330.7,359.6,321.1,365.8,299.7,365.8z"/>
<radialGradient id="SvgjsPath3212_1_" cx="-315.7096" cy="620.4741" r="15.117" gradientTransform="matrix(-2.413 0.2528 -0.2528 -2.413 -369.8569 1811.2172)" gradientUnits="userSpaceOnUse">
	<stop  offset="0" style="stop-color:#FFFFFF"/>
	<stop  offset="0.315" style="stop-color:#FCFDFD"/>
	<stop  offset="0.504" style="stop-color:#F4F7F8"/>
	<stop  offset="0.66" style="stop-color:#E5ECEF"/>
	<stop  offset="0.76" style="stop-color:#D8E2E7"/>
</radialGradient>
<path id="SvgjsPath3212" class="st17" d="M207.2,229.5c-1.2-5.5,12.6-9.6,30.8-7.4c18.2,2.2,30.9,13.4,29.2,19
	c-0.9,3.1-25.8,7.9-34.6,6.9C223.8,247,210.2,242.9,207.2,229.5z"/>
<path id="SvgjsPath3322" class="st18" d="M251.6,237.5c-2.1,7.7-10.1,12.3-17.9,10.2c-7.8-2.1-12.3-10.1-10.2-17.9
	c2.1-7.8,10.1-12.3,17.9-10.2C249.1,221.8,253.7,229.8,251.6,237.5z"/>
<path id="SvgjsPath3323" class="st19" d="M249.3,237.7c-2.1,5.9-8.3,9.4-14.3,7.8c-5.6-1.5-9.1-6.9-8.6-12.5
	c2.1-0.2,4.3-0.2,6.7-0.1c0,0.1-0.1,0.2-0.1,0.2c-0.7,2.7,1,5.6,3.9,6.4c2.9,0.8,5.8-0.8,6.6-3.5c0.1-0.4,0.1-0.7,0.2-1.1
	C245.5,235.6,247.4,236.5,249.3,237.7z"/>
<path id="SvgjsPath3324" class="st20" d="M239.5,229.3c-2.9-0.8-5.9,0.8-6.6,3.7c-0.8,2.9,1,5.9,3.9,6.8c2.9,0.8,5.9-0.8,6.7-3.7
	C244.2,233.2,242.4,230.2,239.5,229.3z M240.1,239.6c-1.2,0.4-2.5-0.1-2.8-1.1c-0.3-1,0.4-2.1,1.6-2.5c1.2-0.4,2.5,0.1,2.8,1.1
	C242.1,238.1,241.4,239.2,240.1,239.6z"/>
<path id="SvgjsPath3325" class="st21" d="M229.8,241.3c-0.9,0.5-2.2,0.1-3-1.1c-0.8-1.1-0.7-2.5,0.2-3c0.9-0.5,2.2-0.1,3,1.1
	C230.8,239.4,230.7,240.8,229.8,241.3z"/>
<path id="SvgjsPath3326" class="st22" d="M248.9,233c-2.1,1.2-5.1,0.1-6.9-2.5c-1.7-2.6-1.5-5.7,0.6-6.9c2-1.2,5.1-0.1,6.9,2.5
	C251.3,228.7,251,231.8,248.9,233z"/>
<path id="SvgjsPath3234" class="st1" d="M186.7,230.6c2,26.4,28.2,57.2,49.8,54c25.5,0.3,50.6-19.1,50.6-54.1s-12.3-64.4-51.3-64.4
	C207.9,166.1,186.7,195.6,186.7,230.6z M207.2,229.5c-1.2-5.5,12.6-9.6,30.8-7.4c18.2,2.2,30.9,13.4,29.2,19
	c-0.9,3.1-25.8,7.9-34.6,6.9C223.8,247,210.2,242.9,207.2,229.5z"/>
<radialGradient id="SvgjsPath3235_1_" cx="-101.9147" cy="716.3696" r="16.003" fx="-90.6617" fy="716.4006" gradientTransform="matrix(2.4259 5.046809e-02 -4.027742e-02 1.9406 522.7332 -1155.6285)" gradientUnits="userSpaceOnUse">
	<stop  offset="0" style="stop-color:#CB8B6A"/>
	<stop  offset="0.7" style="stop-color:#CB8B6A;stop-opacity:0.3"/>
	<stop  offset="1" style="stop-color:#DAA488;stop-opacity:0"/>
</radialGradient>
<path id="SvgjsPath3235" class="st23" d="M232.7,248c8.8,1,33.7-3.8,34.6-6.9c1.7-5.6-11-16.8-29.2-19c-15.7-1.9-28.1,0.8-30.5,5.2
	c2.2-15.5,18.7-27.7,38.8-27.7c21.6-0.1,39.2,13.8,39.2,31c0.1,17.2-17.4,31.2-39.1,31.3c-21.6,0.1-39.2-13.8-39.2-31
	c0-0.3,0-0.5,0-0.8C210.6,243,223.9,247,232.7,248z"/>
<radialGradient id="SvgjsPath3240_1_" cx="-159.3874" cy="611.1656" r="29.524" gradientTransform="matrix(2.5079 0 0 -2.5079 625.8838 1830.9807)" gradientUnits="userSpaceOnUse">
	<stop  offset="0.95" style="stop-color:#000000;stop-opacity:0"/>
	<stop  offset="1" style="stop-color:#000000;stop-opacity:0.2"/>
</radialGradient>
<path id="SvgjsPath3240" class="st24" d="M207.2,229.5c-1.2-5.5,12.6-9.6,30.8-7.4c18.2,2.2,30.9,13.4,29.2,19
	c-0.9,3.1-25.8,7.9-34.6,6.9C223.8,247,210.2,242.9,207.2,229.5z"/>
<path id="SvgjsPath3244" class="st12" d="M208.2,217.1c10.2-4.8,22.7-5.2,33.6-2.4c5.8,1.4,12,3.1,17.1,6.4
	c4.7,2.8,8.6,6.1,12.1,10.2c-3.3-4.1-6.7-7.6-11.2-10.4c-5.5-3.4-11.6-5.6-17.9-7.1C230.8,211,218.3,211.7,208.2,217.1z"/>
<path id="SvgjsPath3245" d="M209.7,218.5c2.1-0.9,9.9-2.4,13.2-2.6c4.1-0.2,12.3,0.3,16.3,1c8.2,1.5,22.4,6,28.3,17.4
	c1.8,3.5,0.2,6-0.3,6.5c0.7-5.9-11.7-16.4-29.2-18.4c-18.2-2.2-32.1,1.8-30.8,7.2c3,13,16.6,17,25.5,18c9.9,1.1,28.3-3.7,30.8-4.3
	c-4.9,2.4-18.3,5.1-23.7,5.6c-1.8,0.2-5.4,0.3-7.2,0.2c-14.4-0.4-24.7-7.7-28.5-17.6C201.6,225.2,204.3,220.7,209.7,218.5z"/>
<radialGradient id="SvgjsPath3219_1_" cx="-92.6516" cy="643.846" r="15.116" gradientTransform="matrix(2.413 0.2528 0.2528 -2.413 424.7415 1811.2172)" gradientUnits="userSpaceOnUse">
	<stop  offset="0" style="stop-color:#FFFFFF"/>
	<stop  offset="0.316" style="stop-color:#FCFDFD"/>
	<stop  offset="0.505" style="stop-color:#F4F7F8"/>
	<stop  offset="0.661" style="stop-color:#E5ECEF"/>
	<stop  offset="0.76" style="stop-color:#D8E2E7"/>
</radialGradient>
<path id="SvgjsPath3219" class="st25" d="M391.8,229.5c1.2-5.5-12.6-9.6-30.8-7.4c-18.2,2.2-30.9,13.4-29.2,19
	c0.9,3.1,25.8,7.9,34.6,6.9C375.2,247,388.9,242.9,391.8,229.5z"/>
<path id="SvgjsPath3327" class="st18" d="M376.5,237.5c-2.1,7.7-10.1,12.3-17.9,10.2c-7.8-2.1-12.3-10.1-10.2-17.9
	c2.1-7.8,10.1-12.3,17.9-10.2C374.1,221.8,378.6,229.8,376.5,237.5z"/>
<path id="SvgjsPath3328" class="st19" d="M374.3,237.7c-2.1,5.9-8.3,9.4-14.3,7.8c-5.6-1.5-9.1-6.9-8.6-12.5
	c2.1-0.2,4.3-0.2,6.7-0.1c0,0.1-0.1,0.2-0.1,0.2c-0.7,2.7,1,5.6,3.9,6.4c2.9,0.8,5.8-0.8,6.6-3.5c0.1-0.4,0.1-0.7,0.2-1.1
	C370.5,235.6,372.4,236.5,374.3,237.7z"/>
<path id="SvgjsPath3329" class="st20" d="M364.5,229.3c-2.9-0.8-5.9,0.8-6.6,3.7c-0.8,2.9,1,5.9,3.9,6.8c2.9,0.8,5.9-0.8,6.7-3.7
	C369.1,233.2,367.4,230.2,364.5,229.3z M365.1,239.6c-1.2,0.4-2.5-0.1-2.8-1.1c-0.3-1,0.4-2.1,1.6-2.5c1.2-0.4,2.5,0.1,2.8,1.1
	C367,238.1,366.3,239.2,365.1,239.6z"/>
<path id="SvgjsPath3330" class="st21" d="M354.7,241.3c-0.9,0.5-2.2,0.1-3-1.1c-0.8-1.1-0.7-2.5,0.2-3c0.9-0.5,2.2-0.1,3,1.1
	C355.8,239.4,355.6,240.8,354.7,241.3z"/>
<path id="SvgjsPath3331" class="st22" d="M373.9,233c-2.1,1.2-5.1,0.1-6.9-2.5c-1.7-2.6-1.5-5.7,0.6-6.9c2.1-1.2,5.1-0.1,6.9,2.5
	C376.2,228.7,376,231.8,373.9,233z"/>
<path id="SvgjsPath3254" class="st1" d="M363.2,166.1c-38.9,0-51.3,29.3-51.3,64.4s25.2,54.4,50.6,54.1c21.5,3.3,47.8-27.5,49.8-54
	C412.4,195.6,391.1,166.1,363.2,166.1z M366.3,248c-8.8,1-33.7-3.8-34.6-6.9c-1.7-5.6,11-16.8,29.2-19c18.2-2.2,32.1,1.9,30.8,7.4
	C388.9,242.9,375.2,247,366.3,248z"/>
<radialGradient id="SvgjsPath3255_1_" cx="-326.9283" cy="722.211" r="16.003" fx="-315.6763" fy="722.242" gradientTransform="matrix(-2.4259 5.046809e-02 4.027742e-02 1.9406 -469.7912 -1155.6084)" gradientUnits="userSpaceOnUse">
	<stop  offset="0" style="stop-color:#CB8B6A"/>
	<stop  offset="0.7" style="stop-color:#CB8B6A;stop-opacity:0.3"/>
	<stop  offset="1" style="stop-color:#DAA488;stop-opacity:0"/>
</radialGradient>
<path id="SvgjsPath3255" class="st26" d="M366.3,248c-8.8,1-33.7-3.8-34.6-6.9c-1.7-5.6,11-16.8,29.2-19c15.7-1.9,28.1,0.8,30.5,5.2
	c-2.2-15.5-18.7-27.7-38.8-27.7c-21.6-0.1-39.2,13.8-39.2,31c-0.1,17.2,17.4,31.2,39.1,31.3c21.6,0.1,39.2-13.8,39.2-31
	c0-0.3,0-0.5,0-0.8C388.4,243,375.1,247,366.3,248z"/>
<radialGradient id="SvgjsPath3260_1_" cx="-376.3656" cy="611.1656" r="29.524" gradientTransform="matrix(-2.5079 0 0 -2.5079 -571.0038 1830.9807)" gradientUnits="userSpaceOnUse">
	<stop  offset="0.95" style="stop-color:#000000;stop-opacity:0"/>
	<stop  offset="1" style="stop-color:#000000;stop-opacity:0.2"/>
</radialGradient>
<path id="SvgjsPath3260" class="st27" d="M391.8,229.5c1.2-5.5-12.6-9.6-30.8-7.4c-18.2,2.2-30.9,13.4-29.2,19
	c0.9,3.1,25.8,7.9,34.6,6.9C375.2,247,388.9,242.9,391.8,229.5z"/>
<path id="SvgjsPath3264" class="st12" d="M390.9,217.1c-10.2-4.8-22.7-5.2-33.6-2.4c-5.8,1.4-12,3.1-17.1,6.4
	c-4.7,2.8-8.6,6.1-12.1,10.2c3.3-4.1,6.7-7.6,11.2-10.4c5.5-3.4,11.6-5.6,17.9-7.1C368.2,211,380.7,211.7,390.9,217.1z"/>
<path id="SvgjsPath3265" d="M389.4,218.5c-2.1-0.9-9.9-2.4-13.2-2.6c-4.1-0.2-12.3,0.3-16.3,1c-8.2,1.5-22.4,6-28.3,17.4
	c-1.8,3.5-0.2,6,0.3,6.5c-0.7-5.9,11.7-16.4,29.2-18.4c18.2-2.2,32.1,1.8,30.8,7.2c-3,13-16.6,17-25.5,18
	c-9.9,1.1-28.3-3.7-30.8-4.3c4.9,2.4,18.3,5.1,23.7,5.6c1.8,0.2,5.4,0.3,7.2,0.2c14.4-0.4,24.7-7.7,28.5-17.6
	C397.4,225.2,394.7,220.7,389.4,218.5z"/>
<radialGradient id="SvgjsPath2885_1_" cx="-124.6672" cy="601.921" r="41.0003" gradientTransform="matrix(2.4264 0 0 -2.4264 602.4851 1766.3185)" gradientUnits="userSpaceOnUse">
	<stop  offset="0" style="stop-color:#E9BFA9;stop-opacity:0.5"/>
	<stop  offset="0.9" style="stop-color:#DAA488;stop-opacity:0"/>
</radialGradient>
<path id="SvgjsPath2885" class="st28" d="M399.5,305.8c0.1,54.9-44.4,99.5-99.3,99.5c-54.9,0.1-99.5-44.3-99.6-99.2
	c-0.1-54.9,44.4-99.6,99.3-99.7C354.8,206.3,399.4,250.9,399.5,305.8z"/>
<radialGradient id="SvgjsPath2889_1_" cx="-124.6667" cy="661.921" r="36.9995" gradientTransform="matrix(2.4264 0 0 -2.4264 602.4851 1766.3185)" gradientUnits="userSpaceOnUse">
	<stop  offset="0" style="stop-color:#E9BFA9;stop-opacity:0.5"/>
	<stop  offset="0.9" style="stop-color:#DAA488;stop-opacity:0"/>
</radialGradient>
<path id="SvgjsPath2889" class="st29" d="M391,160.3c0,50.3-40.7,91-91,91c-50.3,0-91-40.7-91-91s40.7-91,91-91
	C350.3,69.3,391,110,391,160.3z"/>
<path id="SvgjsPath3338" class="st0" d="M188.9,213.6c51.7-43.2,105.6-10.9,89.1-3.1C271.5,213.6,246.9,187,188.9,213.6z"/>
<path id="SvgjsPath3339" class="st0" d="M411.1,213.6c-51.7-43.2-105.6-10.9-89.1-3.1C328.5,213.6,353.1,187,411.1,213.6z"/>
<path id="SvgjsPath3089" class="st3" d="M292.3,244c0,0-3.4,27-4.9,32.2c-3.3,11.5-15,27.7-12.7,35c4.5,14.6,18.3,10.9,25.5,10.8
	c6.7-0.1,19.6,3.8,22.2-5.8c0.9-3.1-1.1-10.8-1.1-10.8s-6.4,7.6-21.5,6.7c-4.3-0.2-11.3-5.1-11.4-11.9c-0.1-9.3,4.4-17.1,5.4-26.3
	C294.5,267.1,292.3,244,292.3,244z"/>
<path id="SvgjsPath3090" class="st12" d="M312.6,317.9c2.6,0,3.3,0.8,3.3,1.8c0,1-0.8,2.5-3.3,1.8c-2.8-0.8-7.6-0.4-7.6-0.4
	S310,317.9,312.6,317.9z M287.7,317.9c-2.6,0-3.3,0.8-3.3,1.8c0,1,0.8,2.4,3.3,1.8c2.8-0.7,7.6-0.4,7.6-0.4S290.3,317.9,287.7,317.9
	z M321.4,305.5c0,0,3.6,4.7,2.9,9.6c-0.7,4.8-8,6.9-8,6.9s5.1-3.7,5.7-8.1C322.2,311.9,321.4,305.5,321.4,305.5z M276.8,300.7
	c0,0-2.6,6.6-1.9,10.6c1.4,7.2,9,10.1,9,10.1s-4.7-4.9-6.4-9.3C275.6,307.3,276.8,300.7,276.8,300.7z"/>
<path id="SvgjsPath3091" class="st2" d="M312.5,309c2.5-2.2,2.8-3.4,2.3-4.2c-0.5-0.8-2-1.3-4.2,1.3c-2.3,2.9-7.4,5-7.4,5
	S309.9,311.2,312.5,309z"/>
<path id="SvgjsPath3491" class="st30" d="M300,429.3c-26.8-2.1-45.8-10.8-67.7-31.1c-21.5-18.6-38.2-46.5-41.9-62.3
	c82.5,94.8,139.6,91.2,219.2,0C399.6,377,345.1,429.3,300,429.3z"/>
<path id="SvgjsPath3492" d="M407.6,343.3c-13.9,38.5-63.8,86.3-107.6,86.3c-28.7-2.3-47.7-12.6-67.9-31.2
	c-23-19.9-39.2-48.7-42.1-63.4c2.3,2.7,4.6,5.2,6.8,7.7c69.2,108.4,143.8,103.5,211.5-5.2L407.6,343.3z"/>
<path id="SvgjsPath3493" d="M270.4,399.6c-20.1-8.6-46.2-25.1-80.4-64.6c2.9,14.7,19.1,43.5,42.1,63.4
	c20.1,18.6,39.2,28.9,67.9,31.2c47,0,101.1-55.1,110.1-94.5C371.9,378.8,322.1,422,270.4,399.6z M234,396.3
	c-18.5-15.7-37.5-43.7-42.3-58.3c76.2,95,139.9,91.5,216.8,0C396.8,366.6,324.3,480.3,234,396.3z"/>
<path id="SvgjsPath3487" class="st0" d="M243.8,385.5c3.3-16.9-8.7-18.9-4.4-45.8c0.3-2.4,1.4-7.6,2.4-10.7c3.5-9,30.9-12.5,38.4-12
	c8.1,0.7,13.7,4.4,19.8,9.8c11.6-10,18.4-12.6,42-6.9c15.7,4.1,16.7,6.9,18.6,19.7c4.1,27.2-7.5,28.3-4.5,46
	c-1.9,1.8-4.1,2.8-6.4,2.8l0,0c-2.1,0-4.1-1-5.6-2.9c-3.6-4.4-4.4-13.1-2.3-23.7c3.7-19.8,0.5-9.8-27.1-15.5
	c-5.9-1.3-10.7-3.1-14.8-7.5c-6.7,7.1-16,7.9-28.8,9.4c-1.4,0.2-2.8,0.2-4.4,0.2c-8.4,0-11.7-2-8.6,13.2c1.5,7.9,2.4,15.9-1.1,21.8
	C253.1,390.3,247.5,389.8,243.8,385.5z"/>
<path id="SvgjsPath3488" class="st31" d="M356.4,385.7c-8,7.9-19.7,0.9-14.8-23.8c3.6-19.5,0.8-9.5-26.9-15.2
	c-5.8-1.3-10.7-3.1-14.8-7.4c-6.7,7.1-16.7,7.9-28.8,9.3c-11.7,1.3-16.4-4.2-12.9,13.2c1.4,7.1,2.6,15.7-1.2,22
	c-4.4,7.2-10.3,5.6-13.6,1.7c3.1-17.2-8.7-19-4.4-46c0.3-2.5,1.5-7.7,2.4-10.7c0.6-1.6,2.1-3.1,4-4.4c-5.9,34.2,0.6,35.9,2.7,58.9
	c12.6-10.4-4.1-34,8-38.8c16.1-6.9,30.6-1.6,43.7-11.5c10.2,8.9,37.6,6.7,46.1,11.5c7.3,4.9-4,30.6,4.9,38.8
	c-0.1-15.8,9.8-23,3.9-58.7c4,3,4.9,7.1,6,14.9C365,367,353.4,368.1,356.4,385.7z M267.8,335c10.6-2,20.1-2.4,28.3-5.9
	c-8.7,2.9-19.1,2.4-28.6,4.2c-29.7,5.2-19.2,23.9-18.3,35.8C249.5,355.6,240.4,339.8,267.8,335z M350.9,369.1
	c-0.1-3.2-0.3-4.3,0.7-10.1c5.4-29.8-28.1-21.3-47.6-29.9c16.4,5.5,56.6-1.3,48.5,30C351,365.1,351.1,365.7,350.9,369.1z M246.7,338
	c3.8-11.3,25.5-18.1,36.8-14.1C273.6,322.1,251.7,328.7,246.7,338z M353.5,336.3c-1.6-2.6-0.7-1.1-2.1-2.7
	c-3.8-4.7-26-12.7-36.4-8.6C324.6,319.4,348.7,324.8,353.5,336.3z"/>
<path id="SvgjsPath3489" d="M360.9,339.7c-1.9-13-3-15.8-18.8-19.9c-23.6-5.7-30.6-3.2-42.1,6.8c-6.4-5.7-12-9.1-19.8-9.7
	c-7.3-0.5-35,3-38.6,12.2c-1,3-2.1,8.2-2.4,10.7c-4.3,27,7.6,28.8,4.4,46c3.3,3.8,9.2,5.5,13.6-1.7c3.8-6.2,2.5-14.9,1.2-22
	c-3.5-17.4,1.2-11.9,12.9-13.2c12.1-1.4,22-2.2,28.8-9.3c4.1,4.3,8.9,6.1,14.8,7.4c27.6,5.7,30.5-4.3,26.9,15.2
	c-5,24.6,6.7,31.7,14.8,23.8C353.4,368.1,365,367,360.9,339.7z M357.9,361.2c-2.3,9.1-4.8,16.3-2.3,24.2
	c-7.7,6.8-14.7-2.7-12.4-16.2c2.5-16.9,7.3-23.4-9.9-23.1c-2.5,0.1-20.2-0.8-28.2-4.6c-1.4-0.6-4-2.6-5-3.7c-7,7.1-16.7,6.8-29,8.1
	c-8.1,1-18.8-3.6-16.2,12.2c1.6,8.7,4.2,18.1,0.7,24.9c-2.7,5.3-7.1,5.8-11.1,2.3c3.4-10.7-2.3-20.2-2.9-28.5
	c-0.6-8.1,1.2-19.9,3.3-26.7c2.1-6.3,28.9-10.6,35.2-10.5c8.1,0.1,12.8,3.3,20,8.4c4.8-3.1,10.1-8.3,19.9-8.4
	c5.8-0.1,33.1,4.1,35.3,10.5C357.5,337.1,359.9,353.2,357.9,361.2z"/>
<path id="SvgjsPath3386" class="st0" d="M426.6,262.2c-10.5-27.8-5.8-48.6-7.8-90.3c-3.1-64.1-18.2-56.2-52.8-58.8
	c-53.5-3.9-72.1-28.6-111.9-28.6c-21.6,0-46.7,9.8-65.9,26.7c-15.5,105.5,6.4,96.7-16.4,150.1c-14.4-15.2-16.3-38.5-27-69.1
	c-8.5-25.4-6.4-26.7-15.8-38.9c6,1.1,6.6,1,9.3,1c-4.8-10.4-10.9-29-13.2-37.1c5.7-2.7,11.7-9.5,15.7-14.4c-2.3-5.2-4-11-5-16.1
	c0.2-0.1,1.1-0.4,1.1-0.4l0,0c13.8-5.9,16.6-38.7,26.2-47c4.7-4.4,9.2-6.1,13.4-8.4c0.5-4.6,0.7-5.5,1.4-8.8
	c22.8-6.1,29.7-2.9,61.9-11.9c11.1-3.1,18.7-5.2,42-4.2c8.6,4.3,39,25.4,61.8,3.9c17.6,11,32.9,12.4,54.9,24.9
	c36.8,21.6,41.8,36.8,39.7,71.7c25.5,33.9,19.8,74.2,8.7,114.6C439.9,246.1,433.2,254.3,426.6,262.2z"/>
<path id="SvgjsPath3387" class="st32" d="M426.2,228.2c-2.4-19.4,7.3-36.4,9.7-53.4c-2.4,4.9-7.3,7.3-7.3,12.1
	c0-17,7.3-31.5,4.9-48.5c-2.4,4.9-4.9,7.3-9.7,9.7c7.3-17,0-36.4-12.1-51c2.4,7.3,4.9,12.1,4.9,19.4c-14.6-21.8-48.5-24.3-72.8-36.4
	c4.9,7.3,14.6,12.1,21.8,17c-34-12.1-65.5-26.7-97.1-41.2c5.4,5.4,9.4,14.6,16,18.2c2.8,0.4,2.4,1.3,0,0
	c-29.1-4.1-59.8-7.3-86.4-20.6c0,9.7,7.3,17,14.6,21.8c-7.3,0-14.6-7.3-19.4-4.9c-7.3,4.9,7.3,9.7,4.9,14.6
	c-7.3,4.9-14.6-2.4-21.8-2.4c4.9,7.3,0,19.4,4.9,26.7c-4.9-2.4-9.7-7.3-9.7-4.9c-2.4,9.7-7.3,12.1-7.3,19.4
	c0,12.1,7.3,24.3,7.3,36.4c0-3.9-4.7-3.1-6.5-5.2c12.2,33.9,11.6,69.6,6.3,105.5c0.2,0.2,0.4,0.4,0.6,0.7
	c22.8-53.3,0.9-44.5,16.4-150.1c19.2-16.9,44.4-26.7,65.9-26.7c39.9,0,58.5,24.8,111.9,28.6c34.6,2.5,49.7-5.4,52.8,58.8
	c2,41.7-2.7,62.5,7.8,90.3c0,0,0,0,0,0c1.6-18,6.8-34.5,6.8-51C431,216.1,428.6,220.9,426.2,228.2z"/>
<path id="SvgjsPath3388" class="st31" d="M443.8,202.7c-0.7,1.6-5.5,2.1-5.5,3.7c0-7.3,8.5-12.7,7.1-24.9c0,1-7.7,7.2-8.4,8.1
	c-0.5,2.4,10.4-25.9,10.4-35.3c-3.6,6-6.6,6-6.6,10.8c0-9.7,0-23.9,0-33.6c0,4.9-4.8,12-4.8,16.9c2.3-18.1-8.3-39.1-10.4-57
	c-1.2,4.4-3.6,9.4-1.7,13.1c-7.3-9.7-4.9-26.7-17-34c-2.4,4.9-2.4,9.7-4.9,14.6c-7.3-9.7-17-17-21.8-26.7c0,4.9,0,7.3,0,12.1
	c-12.1-9.7-29.1-14.6-36.4-29.1c0,4.9,0,12.1,0,17c-9.7-2.4-25.5-11.2-30.3-18.4c0,7.3,8.5,18.4,8.5,25.7c-19.4-9.7-34-24.3-53.4-34
	c0,4.9,4.9,9.7,2.4,14.6c-9.7-4.9-28.6-4.9-33.4-14.6c0,7.3,7.5,14.6,7.5,21.8c-21.8-2.4-26.7-9.3-46.7-18.4
	c-2.4,4.9-5.1,11.2-7.5,16c-4.9-4.9-7.3-9.7-14.6-9.7c0,7.3,7.3,17,2.4,24.3c-2.4,2.4-12.1-7.3-12.1-4.9c-4.9,9.7,0,24.3-4.9,34
	c0,2.4-7.3-4.9-12.1-2.4c9.4,14.1,2.9,30.4,9.1,44.7c0.2,0.4,0.4,0.9,0.6,1.4c-0.2-0.5-0.4-0.9-0.6-1.4c-3.1-5.9-11.7-6.4-13.9-13.1
	c0,17.7,10.1,33.4,13.7,50.8c1.2,0.7,1.8,2.1,0.9,5c-0.2-1.7-0.5-3.4-0.9-5c-1.8-1.1-5-0.8-6.4-2.3c11.5,22.9,15,62.3,19.2,88.2
	c8.6-37.3,4.1-76.3-6.3-105.5c-0.4-0.5-0.7-1.2-0.7-2.1c0.3,0.7,0.5,1.4,0.7,2.1c1.8,2.1,6.5,1.3,6.5,5.2c0-12.1-7.3-24.3-7.3-36.4
	c0-7.3,4.9-9.7,7.3-19.4c0-2.4,4.9,2.4,9.7,4.9c-4.9-7.3,0-19.4-4.9-26.7c7.3,0,14.6,7.3,21.8,2.4c2.4-4.9-12.1-9.7-4.9-14.6
	c4.9-2.4,12.1,4.9,19.4,4.9c-7.3-4.9-14.6-12.1-14.6-21.8c26.6,13.3,57.2,16.5,86.4,20.6c-6.6-3.6-10.6-12.8-16-18.2
	c31.5,14.6,63.1,29.1,97.1,41.2c-7.3-4.9-17-9.7-21.8-17c24.3,12.1,58.2,14.6,72.8,36.4c0-7.3-2.4-12.1-4.9-19.4
	c12.1,14.6,19.4,34,12.1,51c4.9-2.4,7.3-4.9,9.7-9.7c2.4,17-4.9,31.5-4.9,48.5c0-4.9,4.9-7.3,7.3-12.1c-2.4,17-12.1,34-9.7,53.4
	c2.4-7.3,4.9-12.1,7.3-17c0,16.5-5.2,33-6.8,51c2-2.4,4-4.8,6-7.7C432.3,236.5,439.5,221.7,443.8,202.7z"/>
<path id="SvgjsPath3389" class="st0" d="M283.3,73.5c-2.7,0.2-6,0.7-12-0.2c-16.3-2.2-69.4-4.4-72.3-21c2.6,8.1,18,10.4,29.6,12.6
	c0,0,8.2,1.6,21.2,3C274,70.7,268.9,72.6,283.3,73.5z M338.6,86.9c-58-25.1-53.9-22.4-67.4-31c17.8,14.9,23.9,15,54.9,29.2
	c14.4,6.5,17.2,6.2,36.7,10.9C349.1,90.5,347.5,90.6,338.6,86.9z M345.2,79.6c24.1,19.8,53.4,14.9,72.2,36.4
	C402.3,92.1,369.2,94.5,345.2,79.6z M202.7,71.3c-6.5-2-9.7-1-12.8,1c10.3-4.8,21,7.1,33.4,3.6C217.5,76.6,202.7,71.8,202.7,71.3z
	 M195.8,87.3c-5.6-1.8-12.6-4.8-17.4-4.7c-2.5,0.1-3.1,1.2-3.1,1.2c2.4-2.8,13.6,2.7,20.4,3.9c1.9,0.4,3.3,0.3,3.3,0.3
	S197.6,87.9,195.8,87.3z M168.1,115.8c1.7-4.6,3.5-9.1,3-13.3c-0.3-1.5-0.7-2.3-0.7-2.3c1.1,4.8-0.8,7.7-4.1,14.9
	c-7.3,15.7,2.2,27.9,5.9,44.6C171.1,140.5,162.1,132.1,168.1,115.8z M431.9,140.8c0.8,5.3,0.5,8.8-0.4,17.2c0,0-1.7,14-5.1,27.7
	C431.5,173.9,435.7,153.9,431.9,140.8z M435.6,178.4c-8.2,22.8-9.6,31.2-10.9,49.1C433.7,185.7,429.3,206.7,435.6,178.4z"/>
<path id="SvgjsPath3390" class="st33" d="M336.1,25c-14.9,2.3-30.4,4.2-58.2-12.7C304.7,24.4,317.8,25.6,336.1,25z M368.9,29.7
	c-14.7-5.3-15.7-11.6-26.8-15.1c10.1,4.6,10,10.4,23.2,16.4c6.4,3,28.7,9.2,42.3,18C395.6,38.5,387.5,36.7,368.9,29.7z M204.4,24.4
	c28.1,0.6,32.6-6.6,64.9-10.3C240.3,13.7,237.2,20.6,204.4,24.4z M277.8,25c11.3,1.4,27.7,11.5,32.8,23.1
	C306.9,35.1,290.8,25,277.8,25z M340.9,28.6c11.3,6,15.3,18.7,29.1,21.2C356.5,45.3,353.8,33.6,340.9,28.6z M321.5,31
	c2.9,4.9,7.1,10,18.2,17C326.8,37.4,324.6,35.1,321.5,31z M377.9,42.6c12.4,1.5,25.4,13.7,26.7,27.3
	C405.2,56.5,393.2,42.8,377.9,42.6z M420,63.2c-5.6-7.1-10.5-8.8-13-9.8c3.5,1.8,7.3,4.2,11.8,10.6c0,0,8.3,11.1,11.9,23.3
	C428.3,72.7,420,63.2,420,63.2z M189.3,28.6c0.4-0.9,12.9,4.5,13.9,4.9c3,1.2,17.9,7.2,23.1,7.8C223.9,40.7,189.4,25.8,189.3,28.6z
	 M168.7,43.8c1.7,2.2,3.5,5.5,4.9,7.9c0,0,0.7,1.3,1.4,2.6c0.7,1.3,1.2,2.6,1.2,2.6c1.6,3.7,2.4,6,2.5,8.8
	C179.3,58.4,173.1,48.3,168.7,43.8z M161.4,51c-6.1,14.9-6,23.6,0,38.8C157.6,74.6,156.8,67.3,161.4,51z"/>
<path id="SvgjsPath3391" d="M438.9,106.3c0.6-8.5,0.8-13.8,0-22.2c-2.8-24.6-17.5-36.7-40.1-50c-22.2-12.6-37.6-14-55.3-25.2
	c-22.6,21.9-53.2,0.4-61.6-3.7c-40.7-1.7-34.4,6.1-79.5,11.6c-16.6,1.9-23.5,4.2-23.5,4.2c-0.6,0.2-1.3,0.3-1.8,0.5
	c-0.5,2.4-0.9,3.9-1.5,8.9c-3.7,1.9-8.5,3.8-13.2,8.3c-9.8,8.6-12.6,41.7-26.3,47v0c-0.3,0.1-1,0.4-1.3,0.4c1,5.1,2.9,11.5,5,16.5
	c-3.9,4.8-10.1,11.7-15.7,14.1c1.3,4.8,8,26.1,12.9,36.7c-2.7,0-4.9-0.5-9.9-1.4c10.6,13.5,8,13.7,16.9,40.2
	c10.9,31.1,12.6,54.8,27.9,70.1c13.7-25.8,12.5-37.8,12.6-47.1c0.3-12.8-5.9-44.8,4.7-103.8c22.5-19.7,54.3-30.9,84.5-24.1
	c31.5,7.1,47.4,23.2,92.2,26.4c34.9,2.5,49-5.4,52.1,58.1c2,42.2-2.8,63.1,8.3,91.7c6.5-7.8,13.7-15.5,21.2-42.4
	C458.4,181.6,464.5,140.7,438.9,106.3z M448.1,200.9c-8.4,40.3-13.3,47.6-22,60.6c-7-21.5-5.1-42.4-4.4-64.5
	c3.6-95.2-20.4-84.5-55.5-87.2c-42.9-2.9-59.7-19.2-91.6-25.6c-29-5.9-61.3,1.8-88.2,27.1c-14.7,65.8,1.4,101-11.6,134.3
	c-2.8,7.1-1,9-3.1,14.2c-11.2-16.9-14.3-40.8-18-52.9c-11.6-29.5-11.2-39.2-23.9-53.3c3.1,0.7,7.1,1.1,10.2,0.6c0,0,0,0,0,0
	c-0.8-2.4-11-30.3-14-37.2c5.8-2.8,11.5-9.1,15.4-14.1c-3.1-9.9,0.8,4.6-5.1-16.2c17.9-5.4,16-39.1,34.2-51.5
	c2.4-1.6,4.6-2.9,6.9-4.4c0.5-4.6,0.2-1.9,1.3-8.8c21.4-4.4,30.1-0.1,61.1-9.8c23.5-5.7,40.4-5.5,42.8-5.2c15,9.4,23.4,14.7,41,13.4
	c8.1-0.7,14.5-4.6,20.1-10.3c9.7,7.3,20.6,11.7,33.9,17.8c54,24.7,58.8,44.8,58.8,78.1c3.4,4.8,7.1,12.4,9,17.4
	C456.7,150.8,453.1,177.3,448.1,200.9z"/>
<path id="SvgjsPath3340" class="st34" d="M300,73.2L300,73.2L300,73.2L300,73.2z"/>
<rect id="SvgjsRect1036" y="555" class="st35" width="600" height="45"/>
</svg>
